<?xml version="1.0" standalone="no"?><!DOCTYPE svg PUBLIC "-//W3C//DTD SVG 1.1//EN" "http://www.w3.org/Graphics/SVG/1.1/DTD/svg11.dtd"><svg t="1591161461409" class="icon" viewBox="0 0 1116 1024" version="1.1" xmlns="http://www.w3.org/2000/svg" p-id="1806" xmlns:xlink="http://www.w3.org/1999/xlink" width="217.96875" height="200"><defs><style type="text/css"></style></defs><path d="M62 62m70.06617334 0l840.79408359 0q70.06617334 0 70.06617335 70.06617334l0 630.5955627q0 70.06617334-70.06617335 70.06617334l-840.79408359 0q-70.06617334 0-70.06617334-70.06617334l0-630.5955627q0-70.06617334 70.06617334-70.06617334Z" fill="#36CFC9" p-id="1807"></path><path d="M1042.92643027 692.5955627v70.06617334a70.06617334 70.06617334 0 0 1-70.06617334 70.06617334h-321.60373682l95.28999611 105.09926044-25.92448419 23.47216875L604.31218349 832.72790938h-105.09926044L384.30439824 962 358.37991406 937.82716982l95.2899961-105.09926044H132.06617334a70.06617334 70.06617334 0 0 1-70.06617334-70.06617334v-70.06617335z" fill="#08979C" p-id="1808"></path><path d="M412.33086846 272.19852089v350.33086759H307.23160801V272.19852089z m175.16543378 140.13234757v210.19852001h-105.09926044v-210.19852001z m175.1654338 70.06617334v140.13234668h-105.09926045v-140.13234668z m-235.77267393-315.29778135v147.48929561h210.1985209V261.68859512L832.72790938 333.85675362l-95.2899961 66.21253417V349.62164229h-250.13623974V202.13234756H307.23160801V167.09926045z" fill="#B5F5EC" p-id="1809"></path><path d="M552.46321513 762.66173604m-35.0330871 0a35.03308711 35.03308711 0 1 0 70.06617421 0 35.03308711 35.03308711 0 1 0-70.06617421 0Z" fill="#FFFFFF" p-id="1810"></path></svg>