<?xml version="1.0" standalone="no"?><!DOCTYPE svg PUBLIC "-//W3C//DTD SVG 1.1//EN" "http://www.w3.org/Graphics/SVG/1.1/DTD/svg11.dtd"><svg t="1591161617085" class="icon" viewBox="0 0 1024 1024" version="1.1" xmlns="http://www.w3.org/2000/svg" p-id="2316" xmlns:xlink="http://www.w3.org/1999/xlink" width="200" height="200"><defs><style type="text/css"></style></defs><path d="M968.648 764a331.88571469 331.88571469 0 0 0-166.62857156-286.97142844 257.82857156 257.82857156 0 0 1-108.34285688 51.42857157 423.08571469 423.08571469 0 0 1 151.54285688 325.71428531v13.71428625a476.57142844 476.57142844 0 0 0 121.71428625-61.37142938 348.34285687 348.34285687 0 0 0 1.71428531-42.51428531z" fill="#FAAD14" p-id="2317"></path><path d="M636.07657156 47.42857156a228.68571469 228.68571469 0 0 0-40.8 4.11428531 289.37142844 289.37142844 0 0 1 26.74285688 445.71428625h14.05714312a225.6 225.6 0 0 0 0-451.2z" fill="#FFE58F" p-id="2318"></path><path d="M242.13371469 514.4a294.17142844 294.17142844 0 0 0 372.68571375 0 373.37142844 373.37142844 0 0 1 187.54285687 324 366.85714312 366.85714312 0 0 1-3.08571375 47.65714312 638.05714313 638.05714313 0 0 1-368.22857156 105.25714219A632.91428531 632.91428531 0 0 1 58.01942844 881.94285687 382.97142844 382.97142844 0 0 1 55.27657156 837.71428531a372.68571469 372.68571469 0 0 1 186.85714313-323.31428531z" fill="#FAAD14" p-id="2319"></path><path d="M498.59085688 587.42857156l-24.34285688 65.82857156 24.68571469 153.6-65.14285781 79.2-68.57142844-79.2 28.45714312-153.25714312-29.14285687-66.17142844z" fill="#D46B08" p-id="2320"></path><path d="M428.30514313 539.42857156a253.71428531 253.71428531 0 1 1 255.08571374-253.71428625 253.71428531 253.71428531 0 0 1-255.08571374 253.71428625z" fill="#FFE58F" p-id="2321"></path></svg>